<?xml version="1.0" encoding="UTF-8"?>
<!DOCTYPE svg PUBLIC "-//W3C//DTD SVG 1.1//EN" "http://www.w3.org/Graphics/SVG/1.1/DTD/svg11.dtd">
<svg xmlns="http://www.w3.org/2000/svg" version="1.1" width="320px" height="320px" style="shape-rendering:geometricPrecision; text-rendering:geometricPrecision; image-rendering:optimizeQuality; fill-rule:evenodd; clip-rule:evenodd" xmlns:xlink="http://www.w3.org/1999/xlink">
<g><path style="opacity:1" fill="#f3f3f3" d="M 191.5,4.5 C 192.99,6.27983 194.99,6.94649 197.5,6.5C 208.591,8.97465 219.258,12.6413 229.5,17.5C 229.821,19.0481 230.821,19.7148 232.5,19.5C 283.747,47.6102 312.247,90.9435 318,149.5C 319.941,215.467 292.774,265.301 236.5,299C 229.494,303.005 222.161,306.171 214.5,308.5C 208.823,309.394 203.49,311.061 198.5,313.5C 179.459,318.355 160.126,319.688 140.5,317.5C 135.927,314.982 130.927,313.982 125.5,314.5C 84.471,304.95 51.971,282.95 28,248.5C 21.7678,238.702 16.6012,228.369 12.5,217.5C 10.7782,210.496 8.94489,203.496 7,196.5C 6.61742,195.944 6.11742,195.611 5.5,195.5C 4.19581,191.64 3.52915,187.64 3.5,183.5C 3.87179,177.57 3.20513,171.903 1.5,166.5C 1.36796,157.809 1.70129,149.142 2.5,140.5C 4.78457,134.491 6.1179,128.157 6.5,121.5C 12.9426,94.6028 25.6093,71.2695 44.5,51.5C 46.5,51.5 47.5,50.5 47.5,48.5C 87.8677,9.72922 135.868,-4.93745 191.5,4.5 Z M 293.5,109.5 C 294.796,115.05 296.463,120.383 298.5,125.5C 299.608,132.484 300.608,139.484 301.5,146.5C 302.721,158.865 302.387,171.198 300.5,183.5C 285.856,249.143 245.523,288.477 179.5,301.5C 170.848,302.146 162.182,302.479 153.5,302.5C 143.778,301.54 134.111,300.206 124.5,298.5C 119.383,296.463 114.05,294.796 108.5,293.5C 105.021,291.597 101.354,289.93 97.5,288.5C 96.7095,287.599 95.7095,286.932 94.5,286.5C 41.5016,256.529 16.0016,210.863 18,149.5C 18.6175,142.465 19.4508,135.465 20.5,128.5C 21.6118,126.401 22.2785,124.067 22.5,121.5C 38.6973,70.6357 72.3639,37.6357 123.5,22.5C 125.698,22.1249 127.698,21.4582 129.5,20.5C 181.693,11.5117 226.526,25.5117 264,62.5C 276.385,76.6127 286.219,92.2794 293.5,109.5 Z"/></g>
<g><path style="opacity:0.663" fill="#7b7b7b" d="M 191.5,4.5 C 193.698,4.87513 195.698,5.5418 197.5,6.5C 194.99,6.94649 192.99,6.27983 191.5,4.5 Z"/></g>
<g><path style="opacity:0.882" fill="#757575" d="M 229.5,17.5 C 230.71,17.9321 231.71,18.5987 232.5,19.5C 230.821,19.7148 229.821,19.0481 229.5,17.5 Z"/></g>
<g><path style="opacity:0.855" fill="#8b8b8b" d="M 129.5,20.5 C 127.698,21.4582 125.698,22.1249 123.5,22.5C 124.918,20.6921 126.918,20.0254 129.5,20.5 Z"/></g>
<g><path style="opacity:0.733" fill="#797979" d="M 47.5,48.5 C 47.5,50.5 46.5,51.5 44.5,51.5C 45.1667,50.1667 46.1667,49.1667 47.5,48.5 Z"/></g>
<g><path style="opacity:1" fill="#f3f3f3" d="M 184.5,51.5 C 184.5,53.8333 184.5,56.1667 184.5,58.5C 176.782,79.9391 167.949,100.939 158,121.5C 156.629,123.041 155.129,124.375 153.5,125.5C 149.5,125.833 145.5,126.167 141.5,126.5C 137.87,126.235 134.703,124.902 132,122.5C 131.333,120.5 131.333,118.5 132,116.5C 146.061,95.4349 159.728,74.1016 173,52.5C 175.566,50.2697 178.566,48.9363 182,48.5C 183.31,49.1301 184.144,50.1301 184.5,51.5 Z"/></g>
<g><path style="opacity:1" fill="#979797" d="M 184.5,51.5 C 187.167,53.8333 187.167,56.1667 184.5,58.5C 184.5,56.1667 184.5,53.8333 184.5,51.5 Z"/></g>
<g><path style="opacity:0.757" fill="#a4a4a4" d="M 293.5,109.5 C 296.346,114.376 298.013,119.709 298.5,125.5C 296.463,120.383 294.796,115.05 293.5,109.5 Z"/></g>
<g><path style="opacity:0.651" fill="#989898" d="M 22.5,121.5 C 22.2785,124.067 21.6118,126.401 20.5,128.5C 20.1706,125.772 20.8372,123.438 22.5,121.5 Z"/></g>
<g><path style="opacity:0.969" fill="#929292" d="M 153.5,125.5 C 151.321,126.926 148.821,127.592 146,127.5C 144.293,127.492 142.793,127.158 141.5,126.5C 145.5,126.167 149.5,125.833 153.5,125.5 Z"/></g>
<g><path style="opacity:0.908" fill="#b1b1b1" d="M 6.5,121.5 C 6.1179,128.157 4.78457,134.491 2.5,140.5C 3.31135,133.934 4.64469,127.601 6.5,121.5 Z"/></g>
<g><path style="opacity:0.791" fill="#cacaca" d="M 225.5,148.5 C 180.186,149.474 134.853,149.808 89.5,149.5C 133.176,148.81 177.009,148.143 221,147.5C 222.707,147.508 224.207,147.842 225.5,148.5 Z"/></g>
<g><path style="opacity:1" fill="#fdfdfd" d="M 225.5,148.5 C 229.568,148.931 231.568,151.264 231.5,155.5C 231.62,158.622 230.287,160.622 227.5,161.5C 181.499,161.667 135.499,161.5 89.5,161C 87.0456,160.057 86.0456,158.224 86.5,155.5C 86.6174,152.95 87.6174,150.95 89.5,149.5C 134.853,149.808 180.186,149.474 225.5,148.5 Z"/></g>
<g><path style="opacity:0.472" fill="#b5b5b5" d="M 89.5,149.5 C 87.6174,150.95 86.6174,152.95 86.5,155.5C 86.0456,158.224 87.0456,160.057 89.5,161C 135.499,161.5 181.499,161.667 227.5,161.5C 223.426,162.954 219.093,163.621 214.5,163.5C 172.507,162.712 130.507,162.212 88.5,162C 84.5914,159.434 83.5914,155.934 85.5,151.5C 86.5769,150.295 87.9102,149.628 89.5,149.5 Z"/></g>
<g><path style="opacity:0.733" fill="#acacac" d="M 1.5,166.5 C 3.20513,171.903 3.87179,177.57 3.5,183.5C 2.26271,178.04 1.59604,172.373 1.5,166.5 Z"/></g>
<g><path style="opacity:1" fill="#f7f7f7" d="M 228.5,178.5 C 230.023,181.635 230.69,184.968 230.5,188.5C 230.5,190.5 229.5,191.5 227.5,191.5C 181.165,191.667 134.832,191.5 88.5,191C 87.255,190.209 85.9217,189.709 84.5,189.5C 82.2504,184.359 83.5837,180.526 88.5,178C 135.237,177.172 181.904,177.339 228.5,178.5 Z"/></g>
<g><path style="opacity:0.851" fill="#b3b3b3" d="M 301.5,146.5 C 302.968,150.742 303.634,155.242 303.5,160C 303.138,166.843 302.638,173.677 302,180.5C 301.768,181.737 301.268,182.737 300.5,183.5C 302.387,171.198 302.721,158.865 301.5,146.5 Z"/></g>
<g><path style="opacity:0.337" fill="#818181" d="M 228.5,178.5 C 229.79,179.058 230.623,180.058 231,181.5C 231.796,184.039 231.629,186.372 230.5,188.5C 230.69,184.968 230.023,181.635 228.5,178.5 Z"/></g>
<g><path style="opacity:0.271" fill="#a1a1a1" d="M 84.5,189.5 C 85.9217,189.709 87.255,190.209 88.5,191C 134.832,191.5 181.165,191.667 227.5,191.5C 181.002,192.665 134.335,192.832 87.5,192C 86.0577,191.623 85.0577,190.79 84.5,189.5 Z"/></g>
<g><path style="opacity:0.765" fill="#b9b9b9" d="M 5.5,195.5 C 6.11742,195.611 6.61742,195.944 7,196.5C 8.94489,203.496 10.7782,210.496 12.5,217.5C 9.39271,210.508 7.05938,203.174 5.5,195.5 Z"/></g>
<g><path style="opacity:1" fill="#f5f5f5" d="M 132.5,214.5 C 138.099,217.407 144.099,219.407 150.5,220.5C 155.09,222.128 159.423,224.295 163.5,227C 173.678,234.92 184.345,242.087 195.5,248.5C 198.113,251.16 201.446,252.493 205.5,252.5C 210.833,252.933 216.166,253.433 221.5,254C 223.988,257.448 223.322,260.448 219.5,263C 217.655,264.128 215.655,264.628 213.5,264.5C 206.51,264.999 199.51,265.332 192.5,265.5C 178.01,263.947 164.677,259.114 152.5,251C 139.298,240.561 124.964,231.894 109.5,225C 105.196,223.894 100.863,222.894 96.5,222C 94.9371,221.241 93.9371,220.074 93.5,218.5C 93.5569,217.391 93.8902,216.391 94.5,215.5C 107.141,213.407 119.808,213.074 132.5,214.5 Z"/></g>
<g><path style="opacity:0.086" fill="#6f6f6f" d="M 94.5,215.5 C 93.8902,216.391 93.5569,217.391 93.5,218.5C 92.1148,217.053 92.4482,216.053 94.5,215.5 Z"/></g>
<g><path style="opacity:0.953" fill="#a5a5a5" d="M 132.5,214.5 C 138.921,215.529 144.921,217.529 150.5,220.5C 144.099,219.407 138.099,217.407 132.5,214.5 Z"/></g>
<g><path style="opacity:0.678" fill="#9e9e9e" d="M 195.5,248.5 C 198.984,249.657 202.317,250.99 205.5,252.5C 201.446,252.493 198.113,251.16 195.5,248.5 Z"/></g>
<g><path style="opacity:0.251" fill="#a5a5a5" d="M 213.5,264.5 C 206.557,266.496 199.557,266.83 192.5,265.5C 199.51,265.332 206.51,264.999 213.5,264.5 Z"/></g>
<g><path style="opacity:0.91" fill="#777777" d="M 94.5,286.5 C 95.7095,286.932 96.7095,287.599 97.5,288.5C 95.8212,288.715 94.8212,288.048 94.5,286.5 Z"/></g>
<g><path style="opacity:0.788" fill="#a0a0a0" d="M 108.5,293.5 C 114.05,294.796 119.383,296.463 124.5,298.5C 118.709,298.013 113.376,296.346 108.5,293.5 Z"/></g>
<g><path style="opacity:0.984" fill="#c7c7c7" d="M 179.5,301.5 C 178.737,302.268 177.737,302.768 176.5,303C 168.655,303.822 160.989,303.656 153.5,302.5C 162.182,302.479 170.848,302.146 179.5,301.5 Z"/></g>
<g><path style="opacity:0.757" fill="#9c9c9c" d="M 214.5,308.5 C 209.506,310.941 204.172,312.607 198.5,313.5C 203.49,311.061 208.823,309.394 214.5,308.5 Z"/></g>
<g><path style="opacity:1" fill="#b0b0b0" d="M 125.5,314.5 C 130.927,313.982 135.927,314.982 140.5,317.5C 135.304,316.861 130.304,315.861 125.5,314.5 Z"/></g>
</svg>
